<?xml version="1.0" encoding="utf-8"?>
<!-- Generator: Adobe Illustrator 23.0.3, SVG Export Plug-In . SVG Version: 6.00 Build 0)  -->
<svg version="1.1" id="Capa_1" xmlns="http://www.w3.org/2000/svg" xmlns:xlink="http://www.w3.org/1999/xlink" x="0px" y="0px"
	 viewBox="0 0 424.1 380.7" style="enable-background:new 0 0 424.1 380.7;" xml:space="preserve">
<style type="text/css">
	.st0{fill:#FFFFFF;}
</style>
<g>
	<g>
		<path class="st0" d="M351.2,380.1H72.9c-4.5,0-8.1-3.6-8.1-8.1V220.4l-56.7-0.1c-3.3,0-6.2-2-7.5-5c-1.3-3-0.6-6.5,1.8-8.9
			L206.1,2.7c1.9-1.8,4.5-2.7,7-2.3c2.4,0.4,4.5,1.8,5.7,3.9l47.4,47.4V36.6c0-4.5,3.6-8.1,8.1-8.1h47.8c4.5,0,8.1,3.6,8.1,8.1v79.2
			l91.4,91.4c2.3,2.3,3,5.8,1.8,8.9c-1.3,3-4.2,5-7.5,5c0,0,0,0,0,0l-56.6-0.1v151C359.3,376.4,355.7,380.1,351.2,380.1z M81,363.8
			h262v-151c0-2.2,0.9-4.2,2.4-5.8c1.5-1.5,3.6-2.4,5.7-2.4c0,0,0,0,0,0l45.1,0.1l-79.9-79.9c-1.5-1.5-2.4-3.6-2.4-5.7V44.8h-31.5
			v26.6c0,3.3-2,6.3-5,7.5c-3,1.3-6.5,0.6-8.9-1.8l-57-57L27.7,204.1l45.2,0.1c4.5,0,8.1,3.6,8.1,8.1C81,212.3,81,363.8,81,363.8z"
			/>
	</g>
</g>
</svg>
