<?xml version="1.0" encoding="utf-8"?>
<!-- Generator: Adobe Illustrator 23.0.3, SVG Export Plug-In . SVG Version: 6.00 Build 0)  -->
<svg version="1.1" id="Layer_1" xmlns="http://www.w3.org/2000/svg" xmlns:xlink="http://www.w3.org/1999/xlink" x="0px" y="0px"
	 viewBox="0 0 24 24" style="enable-background:new 0 0 24 24;" xml:space="preserve">
<style type="text/css">
	.st0{fill-rule:evenodd;clip-rule:evenodd;fill:#DCDCDC;}
</style>
<g>
	<g>
		<path class="st0" d="M12,2.1c-7.9,0-12,9.8-12,9.8s3.1,9.8,12,9.8c8.1,0,12-9.7,12-9.7S20.1,2.1,12,2.1z M12,17.9
			c-2.9,0-5-2.7-5-6.1c0-3.4,2.1-6.1,5-6.1s5,2.7,5,6.1C17,15.3,14.9,17.9,12,17.9z M12,8.2c-1.7,0-3,1.7-3,3.7c0,2,1.3,3.7,3,3.7
			s3-1.7,3-3.7C15,9.9,13.7,8.2,12,8.2z"/>
	</g>
</g>
</svg>
